<?xml version="1.0" encoding="utf-8"?>
<!-- Generator: Adobe Illustrator 24.2.1, SVG Export Plug-In . SVG Version: 6.00 Build 0)  -->
<svg version="1.1" id="Calque_1" xmlns="http://www.w3.org/2000/svg" xmlns:xlink="http://www.w3.org/1999/xlink" x="0px" y="0px"
	 viewBox="0 0 350.8 350.8" style="enable-background:new 0 0 350.8 350.8;" xml:space="preserve">
<style type="text/css">
	.st0{fill:#3885F6;}
</style>
<path class="st0" d="M0,174.4C0.4,77.9,80-0.6,176.9,0c96.6,0.6,174.8,80.4,174,177.3c-0.8,95.7-79.9,173.7-175.9,173.5
	C78.3,350.6-0.4,271.3,0,174.4z M175.1,335.6c88.2,0.1,160.2-71.4,160.5-159.4c0.3-88.3-70.9-160.4-158.9-161
	c-89-0.6-161.5,71.4-161.4,160.3C15.3,263.6,87,335.4,175.1,335.6z"/>
<path class="st0" d="M241.8,165h-56v-56c0-5.4-4.4-9.9-9.9-9.9h-1.1c-5.4,0-9.9,4.4-9.9,9.9v56h-56c-5.4,0-9.9,4.4-9.9,9.9v1.1
	c0,5.4,4.4,9.9,9.9,9.9h56v56c0,5.4,4.4,9.9,9.9,9.9h1.1c5.4,0,9.9-4.4,9.9-9.9v-56h56c5.4,0,9.9-4.4,9.9-9.9v-1.1
	C251.7,169.4,247.3,165,241.8,165z"/>
</svg>
