<?xml version="1.0" encoding="utf-8"?>
<!-- Generator: Adobe Illustrator 24.2.1, SVG Export Plug-In . SVG Version: 6.00 Build 0)  -->
<svg version="1.1" id="Calque_1" xmlns="http://www.w3.org/2000/svg" xmlns:xlink="http://www.w3.org/1999/xlink" x="0px" y="0px"
	 viewBox="0 0 379.8 534.2" style="enable-background:new 0 0 379.8 534.2;" xml:space="preserve">
<style type="text/css">
	.st0{fill:#FFFFFF;}
</style>
<path class="st0" d="M183.8,534.2c-18-6.1-24.7-18.6-24.7-37.4c0.3-210.3,0.2-170.5,0.2-380.8c0-3,0-5.9,0-10.6
	c-3.5,3.3-5.8,5.5-8.1,7.7c-32.8,32.9-65.6,65.8-98.3,98.7c-8.7,8.8-19.3,11.6-30.9,8.3c-11.4-3.3-18.7-11.3-21.2-23
	c-2.5-11.4,1.3-21,9.5-29.2c29.7-29.8,59.4-59.7,89.1-89.6c22.1-22.3,44.3-44.5,66.4-66.7c15.4-15.4,32.9-15.5,48.3,0
	c51.5,51.7,103,103.5,154.4,155.2c14.2,14.3,15.1,32.7,2.4,45.5s-31.4,11.9-45.5-2.1c-32.4-32.5-64.8-65.1-97.2-97.7
	c-2-2-3.6-4.3-5.4-6.4c-0.7,0.2-1.4,0.4-2.1,0.6c0,2.8,0,5.6,0,8.4c0,210.3-0.1,170.5,0.2,380.8c0,19-6.3,32-24.7,38.2
	C192,534.2,187.9,534.2,183.8,534.2z"/>
</svg>
